<svg width="50" height="50" viewBox="0 0 50 50" fill="none" xmlns="http://www.w3.org/2000/svg">
<path d="M40.627 20.3095C40.627 24.7913 39.1718 28.9313 36.7205 32.2902L49.0844 44.6614C50.3052 45.882 50.3052 47.8641 49.0844 49.0846C47.8637 50.3051 45.8811 50.3051 44.6604 49.0846L32.2965 36.7134C28.937 39.1739 24.7961 40.619 20.3135 40.619C9.09224 40.619 0 31.5286 0 20.3095C0 9.09047 9.09224 0 20.3135 0C31.5347 0 40.627 9.09047 40.627 20.3095ZM20.3135 34.37C22.1603 34.37 23.989 34.0063 25.6952 33.2997C27.4015 32.5931 28.9518 31.5574 30.2577 30.2518C31.5636 28.9461 32.5994 27.3961 33.3062 25.6902C34.0129 23.9843 34.3767 22.156 34.3767 20.3095C34.3767 18.4631 34.0129 16.6347 33.3062 14.9288C32.5994 13.2229 31.5636 11.6729 30.2577 10.3673C28.9518 9.06166 27.4015 8.02597 25.6952 7.31937C23.989 6.61277 22.1603 6.24908 20.3135 6.24908C18.4667 6.24908 16.638 6.61277 14.9317 7.31937C13.2255 8.02597 11.6752 9.06166 10.3693 10.3673C9.06343 11.6729 8.02754 13.2229 7.3208 14.9288C6.61406 16.6347 6.2503 18.4631 6.2503 20.3095C6.2503 22.156 6.61406 23.9843 7.3208 25.6902C8.02754 27.3961 9.06343 28.9461 10.3693 30.2518C11.6752 31.5574 13.2255 32.5931 14.9317 33.2997C16.638 34.0063 18.4667 34.37 20.3135 34.37Z" fill="#004080"/>
</svg>
