<svg width="58" height="59" viewBox="0 0 58 59" fill="none" xmlns="http://www.w3.org/2000/svg">
<g clip-path="url(#clip0_43_32)">
<path d="M29 6.34058C16.0962 6.34058 5.64062 16.7961 5.64062 29.7V34.1921C5.64062 35.6858 4.43896 36.8875 2.94531 36.8875C1.45166 36.8875 0.25 35.6858 0.25 34.1921V29.7C0.25 13.8201 13.1201 0.949951 29 0.949951C44.8799 0.949951 57.75 13.8201 57.75 29.7V45.8831C57.75 51.3411 53.3252 55.7659 47.856 55.7659L35.4688 55.7546C34.5366 57.3606 32.7959 58.45 30.7969 58.45H27.2031C24.2271 58.45 21.8125 56.0354 21.8125 53.0593C21.8125 50.0833 24.2271 47.6687 27.2031 47.6687H30.7969C32.7959 47.6687 34.5366 48.7581 35.4688 50.364L47.8672 50.3752C50.3491 50.3752 52.3594 48.365 52.3594 45.8831V29.7C52.3594 16.7961 41.9038 6.34058 29 6.34058ZM16.4219 24.3093H18.2188C20.2065 24.3093 21.8125 25.9153 21.8125 27.9031V40.4812C21.8125 42.469 20.2065 44.075 18.2188 44.075H16.4219C12.4575 44.075 9.23438 40.8518 9.23438 36.8875V31.4968C9.23438 27.5325 12.4575 24.3093 16.4219 24.3093ZM41.5781 24.3093C45.5425 24.3093 48.7656 27.5325 48.7656 31.4968V36.8875C48.7656 40.8518 45.5425 44.075 41.5781 44.075H39.7812C37.7935 44.075 36.1875 42.469 36.1875 40.4812V27.9031C36.1875 25.9153 37.7935 24.3093 39.7812 24.3093H41.5781Z" fill="#FF7300"/>
</g>
<defs>
<clipPath id="clip0_43_32">
<rect width="57.5" height="57.5" fill="white" transform="translate(0.25 0.949951)"/>
</clipPath>
</defs>
</svg>
