<svg width="55" height="52" viewBox="0 0 55 52" fill="none" xmlns="http://www.w3.org/2000/svg">
<path d="M54.8475 16.9236C55.2122 17.8074 54.9045 18.7927 54.1181 19.4225L49.1831 23.4249C49.3085 24.268 49.3769 25.1315 49.3769 26.0051C49.3769 26.8787 49.3085 27.7421 49.1831 28.5853L54.1181 32.5876C54.9045 33.2174 55.2122 34.2028 54.8475 35.0865C54.3461 36.2954 53.742 37.4534 53.0468 38.5708L52.5111 39.3936C51.7589 40.511 50.9155 41.5675 49.9923 42.563C49.3199 43.2944 48.203 43.5382 47.2 43.2538L40.8518 41.4558C39.3246 42.5021 37.6378 43.3757 35.837 44.0359L34.4124 49.8363C34.1844 50.7607 33.3866 51.4921 32.3381 51.6445C30.7653 51.8781 29.1469 52 27.4943 52C25.8417 52 24.2233 51.8781 22.6505 51.6445C21.602 51.4921 20.8042 50.7607 20.5762 49.8363L19.1516 44.0359C17.3508 43.3757 15.664 42.5021 14.1368 41.4558L7.79997 43.2639C6.79702 43.5483 5.6801 43.2944 5.00767 42.5732C4.08449 41.5777 3.2411 40.5212 2.48889 39.4038L1.95322 38.581C1.25799 37.4636 0.653943 36.3055 0.152467 35.0967C-0.212243 34.2129 0.0954806 33.2276 0.881886 32.5978L5.81686 28.5954C5.6915 27.7421 5.62311 26.8787 5.62311 26.0051C5.62311 25.1315 5.6915 24.268 5.81686 23.4249L0.881886 19.4225C0.0954806 18.7927 -0.212243 17.8074 0.152467 16.9236C0.653943 15.7148 1.25799 14.5567 1.95322 13.4393L2.48889 12.6165C3.2411 11.4991 4.08449 10.4427 5.00767 9.44716C5.6801 8.71576 6.79702 8.47197 7.79997 8.7564L14.1482 10.5544C15.6754 9.50811 17.3622 8.6345 19.163 7.97421L20.5876 2.17386C20.8156 1.24946 21.6134 0.51807 22.6619 0.365696C24.2347 0.121899 25.8531 0 27.5057 0C29.1583 0 30.7767 0.121899 32.3495 0.355538C33.398 0.507912 34.1958 1.2393 34.4238 2.1637L35.8484 7.96406C37.6492 8.62434 39.336 9.49795 40.8632 10.5442L47.2114 8.74624C48.2144 8.46181 49.3313 8.71577 50.0037 9.437C50.9269 10.4325 51.7703 11.489 52.5225 12.6064L53.0582 13.4292C53.7534 14.5466 54.3575 15.7046 54.8589 16.9135L54.8475 16.9236ZM27.5057 34.1317C29.9239 34.1317 32.243 33.2755 33.9529 31.7514C35.6628 30.2274 36.6234 28.1604 36.6234 26.0051C36.6234 23.8498 35.6628 21.7827 33.9529 20.2587C32.243 18.7347 29.9239 17.8785 27.5057 17.8785C25.0875 17.8785 22.7684 18.7347 21.0585 20.2587C19.3486 21.7827 18.388 23.8498 18.388 26.0051C18.388 28.1604 19.3486 30.2274 21.0585 31.7514C22.7684 33.2755 25.0875 34.1317 27.5057 34.1317Z" fill="#FF7300"/>
</svg>
