<svg width="24" height="25" viewBox="0 0 24 25" fill="none" xmlns="http://www.w3.org/2000/svg">
<path d="M12.0001 12.7144C13.7321 12.7144 15.3932 12.0672 16.6179 10.9152C17.8427 9.76321 18.5307 8.20076 18.5307 6.57157C18.5307 4.94238 17.8427 3.37992 16.6179 2.22791C15.3932 1.0759 13.7321 0.428711 12.0001 0.428711C10.2681 0.428711 8.60699 1.0759 7.38226 2.22791C6.15754 3.37992 5.46949 4.94238 5.46949 6.57157C5.46949 8.20076 6.15754 9.76321 7.38226 10.9152C8.60699 12.0672 10.2681 12.7144 12.0001 12.7144ZM9.66847 15.018C4.64296 15.018 0.571533 18.8477 0.571533 23.5748C0.571533 24.3619 1.2501 25.0001 2.08684 25.0001H21.9134C22.7501 25.0001 23.4287 24.3619 23.4287 23.5748C23.4287 18.8477 19.3572 15.018 14.3317 15.018H9.66847Z" fill="#004080"/>
</svg>
