<svg width="50" height="50" viewBox="0 0 50 50" fill="none" xmlns="http://www.w3.org/2000/svg">
<path d="M25 4.6875C13.7793 4.6875 4.6875 13.7793 4.6875 25V28.9062C4.6875 30.2051 3.64258 31.25 2.34375 31.25C1.04492 31.25 0 30.2051 0 28.9062V25C0 11.1914 11.1914 0 25 0C38.8086 0 50 11.1914 50 25V39.0723C50 43.8184 46.1523 47.666 41.3965 47.666L30.625 47.6562C29.8145 49.0527 28.3008 50 26.5625 50H23.4375C20.8496 50 18.75 47.9004 18.75 45.3125C18.75 42.7246 20.8496 40.625 23.4375 40.625H26.5625C28.3008 40.625 29.8145 41.5723 30.625 42.9688L41.4062 42.9785C43.5645 42.9785 45.3125 41.2305 45.3125 39.0723V25C45.3125 13.7793 36.2207 4.6875 25 4.6875ZM14.0625 20.3125H15.625C17.3535 20.3125 18.75 21.709 18.75 23.4375V34.375C18.75 36.1035 17.3535 37.5 15.625 37.5H14.0625C10.6152 37.5 7.8125 34.6973 7.8125 31.25V26.5625C7.8125 23.1152 10.6152 20.3125 14.0625 20.3125ZM35.9375 20.3125C39.3848 20.3125 42.1875 23.1152 42.1875 26.5625V31.25C42.1875 34.6973 39.3848 37.5 35.9375 37.5H34.375C32.6465 37.5 31.25 36.1035 31.25 34.375V23.4375C31.25 21.709 32.6465 20.3125 34.375 20.3125H35.9375Z" fill="#004080"/>
</svg>
