<svg width="56" height="43" viewBox="0 0 56 43" fill="none" xmlns="http://www.w3.org/2000/svg">
<path d="M18.48 6.14286C18.48 4.51367 17.89 2.95121 16.8398 1.7992C15.7896 0.647192 14.3652 0 12.88 0C11.3948 0 9.97041 0.647192 8.9202 1.7992C7.87 2.95121 7.28 4.51367 7.28 6.14286C7.28 7.77204 7.87 9.3345 8.9202 10.4865C9.97041 11.6385 11.3948 12.2857 12.88 12.2857C14.3652 12.2857 15.7896 11.6385 16.8398 10.4865C17.89 9.3345 18.48 7.77204 18.48 6.14286ZM2.8 21.5C2.8 23.1989 4.05125 24.5714 5.6 24.5714H13.09C13.9738 20.7897 16.4675 17.7087 19.7225 16.2594C18.8737 15.6835 17.8675 15.3571 16.8 15.3571H8.4C5.31125 15.3571 2.8 18.1118 2.8 21.5ZM43.19 24.5714H50.4C51.9487 24.5714 53.2 23.1989 53.2 21.5C53.2 18.1118 50.6887 15.3571 47.6 15.3571H39.2C38.1762 15.3571 37.2137 15.6547 36.3912 16.1826C39.725 17.6031 42.2887 20.7225 43.19 24.5714ZM34.23 18.6589C33.6263 18.5054 32.9875 18.4286 32.34 18.4286H23.94C23.1963 18.4286 22.4788 18.5342 21.7963 18.7261C19.1013 19.5036 16.9312 21.7112 16.0125 24.5714C15.7062 25.5312 15.5312 26.5679 15.5312 27.6429C15.5312 29.3417 16.7825 30.7143 18.3312 30.7143H37.9312C39.48 30.7143 40.7312 29.3417 40.7312 27.6429C40.7312 26.5679 40.565 25.5312 40.25 24.5714C39.305 21.6248 37.03 19.3692 34.2212 18.6589H34.23ZM49.28 6.14286C49.28 4.51367 48.69 2.95121 47.6398 1.7992C46.5896 0.647192 45.1652 0 43.68 0C42.1948 0 40.7704 0.647192 39.7202 1.7992C38.67 2.95121 38.08 4.51367 38.08 6.14286C38.08 7.77204 38.67 9.3345 39.7202 10.4865C40.7704 11.6385 42.1948 12.2857 43.68 12.2857C45.1652 12.2857 46.5896 11.6385 47.6398 10.4865C48.69 9.3345 49.28 7.77204 49.28 6.14286ZM28.14 15.3571C29.9965 15.3571 31.777 14.5482 33.0897 13.1081C34.4025 11.6681 35.14 9.71506 35.14 7.67857C35.14 5.64209 34.4025 3.68901 33.0897 2.249C31.777 0.80899 29.9965 0 28.14 0C26.2835 0 24.503 0.80899 23.1903 2.249C21.8775 3.68901 21.14 5.64209 21.14 7.67857C21.14 9.71506 21.8775 11.6681 23.1903 13.1081C24.503 14.5482 26.2835 15.3571 28.14 15.3571ZM2.8 36.8571C1.25125 36.8571 0 38.2297 0 39.9286C0 41.6275 1.25125 43 2.8 43H53.2C54.7487 43 56 41.6275 56 39.9286C56 38.2297 54.7487 36.8571 53.2 36.8571H2.8Z" fill="#FF7300"/>
</svg>
