<svg width="60" height="60" viewBox="0 0 60 60" fill="none" xmlns="http://www.w3.org/2000/svg">
<path d="M41.875 13.125C41.875 10.5291 41.1052 7.99154 39.663 5.83315C38.2208 3.67475 36.171 1.99249 33.7727 0.999087C31.3744 0.0056868 28.7354 -0.254232 26.1894 0.252199C23.6434 0.75863 21.3048 2.00867 19.4692 3.84423C17.6337 5.67979 16.3836 8.01844 15.8772 10.5644C15.3708 13.1104 15.6307 15.7494 16.6241 18.1477C17.6175 20.546 19.2998 22.5958 21.4581 24.038C23.6165 25.4802 26.1541 26.25 28.75 26.25C32.2289 26.2434 35.5635 24.8585 38.0235 22.3985C40.4835 19.9385 41.8684 16.6039 41.875 13.125ZM28.75 21.25C26.5972 21.2434 24.5344 20.3853 23.012 18.863C21.4897 17.3407 20.6316 15.2779 20.625 13.125C20.6265 12.1163 20.8129 11.1164 21.175 10.175C21.2103 10.0871 21.2644 10.008 21.3335 9.94327C21.4026 9.87849 21.485 9.8296 21.575 9.80001C21.66 9.75615 21.7543 9.73327 21.85 9.73327C21.9457 9.73327 22.04 9.75615 22.125 9.80001C25.0981 11.9084 28.6553 13.0358 32.3 13.025C33.6461 13.0278 34.9882 12.8768 36.3 12.575C36.3627 12.5459 36.4309 12.5308 36.5 12.5308C36.5691 12.5308 36.6373 12.5459 36.7 12.575C36.7531 12.6224 36.7959 12.6801 36.826 12.7445C36.8561 12.809 36.8728 12.8789 36.875 12.95C36.8949 14.0307 36.6996 15.1046 36.3005 16.1092C35.9014 17.1137 35.3065 18.0288 34.5504 18.8012C33.7942 19.5737 32.892 20.1879 31.8962 20.6084C30.9004 21.0288 29.8309 21.2469 28.75 21.25Z" fill="white"/>
<path d="M27.225 30C27.2533 29.8609 27.3282 29.7356 27.4373 29.6447C27.5463 29.5538 27.6831 29.5028 27.825 29.5H29.675C29.8169 29.5028 29.9536 29.5538 30.0627 29.6447C30.1717 29.7356 30.2466 29.8609 30.275 30L32.775 40.875C32.8033 41.0141 32.8782 41.1394 32.9873 41.2302C33.0963 41.3211 33.2331 41.3722 33.375 41.375H45C45.2984 41.3721 45.5919 41.2981 45.856 41.159C46.1201 41.0199 46.3471 40.8198 46.5183 40.5753C46.6895 40.3308 46.7998 40.0489 46.8401 39.7532C46.8804 39.4575 46.8495 39.1564 46.75 38.875C45.3639 35.216 42.8971 32.0655 39.6774 29.8423C36.4577 27.619 32.6377 26.4282 28.725 26.4282C24.8123 26.4282 20.9922 27.619 17.7726 29.8423C14.5529 32.0655 12.0861 35.216 10.7 38.875C10.6005 39.1564 10.5696 39.4575 10.6099 39.7532C10.6502 40.0489 10.7605 40.3308 10.9317 40.5753C11.1028 40.8198 11.3299 41.0199 11.594 41.159C11.858 41.2981 12.1515 41.3721 12.45 41.375H24.2C24.3419 41.3722 24.4786 41.3211 24.5877 41.2302C24.6967 41.1394 24.7716 41.0141 24.8 40.875L27.225 30Z" fill="white"/>
<path d="M60 47.5C60 46.837 59.7366 46.2011 59.2678 45.7322C58.7989 45.2634 58.163 45 57.5 45H2.5C1.83696 45 1.20107 45.2634 0.732233 45.7322C0.263392 46.2011 0 46.837 0 47.5C0 48.163 0.263392 48.7989 0.732233 49.2678C1.20107 49.7366 1.83696 50 2.5 50H3.125C3.29076 50 3.44973 50.0658 3.56694 50.1831C3.68415 50.3003 3.75 50.4592 3.75 50.625V57.5C3.75 58.163 4.01339 58.7989 4.48223 59.2678C4.95107 59.7366 5.58696 60 6.25 60H53.75C54.413 60 55.0489 59.7366 55.5178 59.2678C55.9866 58.7989 56.25 58.163 56.25 57.5V50.625C56.25 50.4592 56.3158 50.3003 56.4331 50.1831C56.5503 50.0658 56.7092 50 56.875 50H57.5C58.163 50 58.7989 49.7366 59.2678 49.2678C59.7366 48.7989 60 48.163 60 47.5Z" fill="white"/>
</svg>
