<svg width="50" height="44" viewBox="0 0 50 44" fill="none" xmlns="http://www.w3.org/2000/svg">
<path d="M49.0844 24.0832C50.3052 22.8624 50.3052 20.8799 49.0844 19.6592L36.5838 7.15855C35.3631 5.93779 33.3805 5.93779 32.1598 7.15855C30.939 8.37932 30.939 10.3618 32.1598 11.5826L39.3281 18.7509H18.7509C17.0223 18.7509 15.6258 20.1475 15.6258 21.8761C15.6258 23.6047 17.0223 25.0012 18.7509 25.0012H39.3281L32.1598 32.1695C30.939 33.3903 30.939 35.3728 32.1598 36.5936C33.3805 37.8143 35.3631 37.8143 36.5838 36.5936L49.0844 24.093V24.0832ZM15.6258 6.25031C17.3544 6.25031 18.7509 4.85375 18.7509 3.12515C18.7509 1.39655 17.3544 0 15.6258 0H9.37546C4.19942 0 0 4.19942 0 9.37546V34.3767C0 39.5527 4.19942 43.7521 9.37546 43.7521H15.6258C17.3544 43.7521 18.7509 42.3556 18.7509 40.627C18.7509 38.8984 17.3544 37.5018 15.6258 37.5018H9.37546C7.64686 37.5018 6.25031 36.1053 6.25031 34.3767V9.37546C6.25031 7.64686 7.64686 6.25031 9.37546 6.25031H15.6258Z" fill="white"/>
</svg>
