<svg width="22" height="32" viewBox="0 0 22 32" fill="none" xmlns="http://www.w3.org/2000/svg">
<path d="M11 0C7.6875 0 5 2.6875 5 6V16C5 19.3125 7.6875 22 11 22C14.3125 22 17 19.3125 17 16V6C17 2.6875 14.3125 0 11 0ZM3 13.5C3 12.6687 2.33125 12 1.5 12C0.66875 12 0 12.6687 0 13.5V16C0 21.5687 4.1375 26.1687 9.5 26.9V29H6.5C5.66875 29 5 29.6687 5 30.5C5 31.3313 5.66875 32 6.5 32H11H15.5C16.3313 32 17 31.3313 17 30.5C17 29.6687 16.3313 29 15.5 29H12.5V26.9C17.8625 26.1687 22 21.5687 22 16V13.5C22 12.6687 21.3313 12 20.5 12C19.6687 12 19 12.6687 19 13.5V16C19 20.4187 15.4187 24 11 24C6.58125 24 3 20.4187 3 16V13.5Z" fill="white"/>
</svg>
