<svg width="62" height="50" viewBox="0 0 62 50" fill="none" xmlns="http://www.w3.org/2000/svg">
<path d="M9.3 12.5C9.3 9.18479 10.6064 6.00537 12.9319 3.66117C15.2573 1.31696 18.4113 0 21.7 0C24.9887 0 28.1427 1.31696 30.4681 3.66117C32.7936 6.00537 34.1 9.18479 34.1 12.5C34.1 15.8152 32.7936 18.9946 30.4681 21.3388C28.1427 23.683 24.9887 25 21.7 25C18.4113 25 15.2573 23.683 12.9319 21.3388C10.6064 18.9946 9.3 15.8152 9.3 12.5ZM0 47.0996C0 37.4805 7.73063 29.6875 17.2728 29.6875H26.1272C35.6694 29.6875 43.4 37.4805 43.4 47.0996C43.4 48.7012 42.1116 50 40.5228 50H2.87719C1.28844 50 0 48.7012 0 47.0996ZM59.0259 50H45.6669C46.19 49.082 46.5 48.0176 46.5 46.875V46.0938C46.5 40.166 43.8747 34.8438 39.7381 31.2695C39.9706 31.2598 40.1934 31.25 40.4259 31.25H46.3741C55.0056 31.25 62 38.3008 62 47.002C62 48.6621 60.6631 50 59.0259 50ZM41.85 25C38.8469 25 36.1344 23.7695 34.1678 21.7871C36.0762 19.1895 37.2 15.9766 37.2 12.5C37.2 9.88281 36.5606 7.41211 35.4272 5.24414C37.2291 3.91602 39.4475 3.125 41.85 3.125C47.8466 3.125 52.7 8.01758 52.7 14.0625C52.7 20.1074 47.8466 25 41.85 25Z" fill="#F3B806"/>
</svg>
