<svg width="45" height="50" viewBox="0 0 45 50" fill="none" xmlns="http://www.w3.org/2000/svg">
<path d="M22.5 25C25.9099 25 29.1802 23.683 31.5914 21.3388C34.0026 18.9946 35.3571 15.8152 35.3571 12.5C35.3571 9.18479 34.0026 6.00537 31.5914 3.66117C29.1802 1.31696 25.9099 0 22.5 0C19.0901 0 15.8198 1.31696 13.4086 3.66117C10.9974 6.00537 9.64286 9.18479 9.64286 12.5C9.64286 15.8152 10.9974 18.9946 13.4086 21.3388C15.8198 23.683 19.0901 25 22.5 25ZM17.9096 29.6875C8.01562 29.6875 0 37.4805 0 47.0996C0 48.7012 1.33594 50 2.98326 50H42.0167C43.6641 50 45 48.7012 45 47.0996C45 37.4805 36.9844 29.6875 27.0904 29.6875H17.9096Z" fill="#004080"/>
</svg>
