<svg width="62" height="50" viewBox="0 0 62 50" fill="none" xmlns="http://www.w3.org/2000/svg">
<path d="M9.41902 12.5C9.41902 9.18479 10.7422 6.00537 13.0974 3.66117C15.4526 1.31696 18.6469 0 21.9777 0C25.3085 0 28.5029 1.31696 30.8581 3.66117C33.2133 6.00537 34.5364 9.18479 34.5364 12.5C34.5364 15.8152 33.2133 18.9946 30.8581 21.3388C28.5029 23.683 25.3085 25 21.9777 25C18.6469 25 15.4526 23.683 13.0974 21.3388C10.7422 18.9946 9.41902 15.8152 9.41902 12.5ZM0 47.0996C0 37.4805 7.82956 29.6875 17.4939 29.6875H26.4616C36.1259 29.6875 43.9554 37.4805 43.9554 47.0996C43.9554 48.7012 42.6505 50 41.0414 50H2.91401C1.30493 50 0 48.7012 0 47.0996ZM61.3218 17.2852L48.7631 29.7852C47.8408 30.7031 46.3494 30.7031 45.437 29.7852L39.1576 23.5352C38.2354 22.6172 38.2354 21.1328 39.1576 20.2246C40.0799 19.3164 41.5713 19.3066 42.4837 20.2246L47.0951 24.8145L57.9859 13.9648C58.9081 13.0469 60.3995 13.0469 61.312 13.9648C62.2244 14.8828 62.2342 16.3672 61.312 17.2754L61.3218 17.2852Z" fill="#FF7300"/>
</svg>
