<svg width="62" height="50" viewBox="0 0 62 50" fill="none" xmlns="http://www.w3.org/2000/svg">
<path d="M9.3 12.5C9.3 9.18479 10.6064 6.00537 12.9319 3.66117C15.2573 1.31696 18.4113 0 21.7 0C24.9887 0 28.1427 1.31696 30.4681 3.66117C32.7936 6.00537 34.1 9.18479 34.1 12.5C34.1 15.8152 32.7936 18.9946 30.4681 21.3388C28.1427 23.683 24.9887 25 21.7 25C18.4113 25 15.2573 23.683 12.9319 21.3388C10.6064 18.9946 9.3 15.8152 9.3 12.5ZM0 47.0996C0 37.4805 7.73063 29.6875 17.2728 29.6875H26.1272C35.6694 29.6875 43.4 37.4805 43.4 47.0996C43.4 48.7012 42.1116 50 40.5228 50H2.87719C1.28844 50 0 48.7012 0 47.0996ZM48.825 30.4688V24.2188H42.625C41.3366 24.2188 40.3 23.1738 40.3 21.875C40.3 20.5762 41.3366 19.5312 42.625 19.5312H48.825V13.2812C48.825 11.9824 49.8616 10.9375 51.15 10.9375C52.4384 10.9375 53.475 11.9824 53.475 13.2812V19.5312H59.675C60.9634 19.5312 62 20.5762 62 21.875C62 23.1738 60.9634 24.2188 59.675 24.2188H53.475V30.4688C53.475 31.7676 52.4384 32.8125 51.15 32.8125C49.8616 32.8125 48.825 31.7676 48.825 30.4688Z" fill="#1DCAF4"/>
</svg>
