<svg width="116" height="25" viewBox="0 0 116 25" fill="none" xmlns="http://www.w3.org/2000/svg">
<path d="M12 0C11.7348 0 11.4804 0.105357 11.2929 0.292893C11.1054 0.48043 11 0.734784 11 1V23C11 23.2652 11.1054 23.5196 11.2929 23.7071C11.4804 23.8946 11.7348 24 12 24C12.2652 24 12.5196 23.8946 12.7071 23.7071C12.8946 23.5196 13 23.2652 13 23V1C13 0.734784 12.8946 0.48043 12.7071 0.292893C12.5196 0.105357 12.2652 0 12 0Z" fill="white"/>
<path d="M8 2C7.73478 2 7.48043 2.10536 7.29289 2.29289C7.10536 2.48043 7 2.73478 7 3V21C7 21.2652 7.10536 21.5196 7.29289 21.7071C7.48043 21.8946 7.73478 22 8 22C8.26522 22 8.51957 21.8946 8.70711 21.7071C8.89464 21.5196 9 21.2652 9 21V3C9 2.73478 8.89464 2.48043 8.70711 2.29289C8.51957 2.10536 8.26522 2 8 2Z" fill="white"/>
<path d="M4 6C3.73478 6 3.48043 6.10536 3.29289 6.29289C3.10536 6.48043 3 6.73478 3 7V17C3 17.2652 3.10536 17.5196 3.29289 17.7071C3.48043 17.8946 3.73478 18 4 18C4.26522 18 4.51957 17.8946 4.70711 17.7071C4.89464 17.5196 5 17.2652 5 17V7C5 6.73478 4.89464 6.48043 4.70711 6.29289C4.51957 6.10536 4.26522 6 4 6Z" fill="white"/>
<path d="M1 10C0.734784 10 0.48043 10.1054 0.292893 10.2929C0.105357 10.4804 0 10.7348 0 11L0 13C0 13.2652 0.105357 13.5196 0.292893 13.7071C0.48043 13.8946 0.734784 14 1 14C1.26522 14 1.51957 13.8946 1.70711 13.7071C1.89464 13.5196 2 13.2652 2 13V11C2 10.7348 1.89464 10.4804 1.70711 10.2929C1.51957 10.1054 1.26522 10 1 10Z" fill="white"/>
<path d="M16 2C15.7348 2 15.4804 2.10536 15.2929 2.29289C15.1054 2.48043 15 2.73478 15 3V21C15 21.2652 15.1054 21.5196 15.2929 21.7071C15.4804 21.8946 15.7348 22 16 22C16.2652 22 16.5196 21.8946 16.7071 21.7071C16.8946 21.5196 17 21.2652 17 21V3C17 2.73478 16.8946 2.48043 16.7071 2.29289C16.5196 2.10536 16.2652 2 16 2Z" fill="white"/>
<path d="M20 6C19.7348 6 19.4804 6.10536 19.2929 6.29289C19.1054 6.48043 19 6.73478 19 7V17C19 17.2652 19.1054 17.5196 19.2929 17.7071C19.4804 17.8946 19.7348 18 20 18C20.2652 18 20.5196 17.8946 20.7071 17.7071C20.8946 17.5196 21 17.2652 21 17V7C21 6.73478 20.8946 6.48043 20.7071 6.29289C20.5196 6.10536 20.2652 6 20 6Z" fill="white"/>
<path d="M23 10C22.7348 10 22.4804 10.1054 22.2929 10.2929C22.1054 10.4804 22 10.7348 22 11V13C22 13.2652 22.1054 13.5196 22.2929 13.7071C22.4804 13.8946 22.7348 14 23 14C23.2652 14 23.5196 13.8946 23.7071 13.7071C23.8946 13.5196 24 13.2652 24 13V11C24 10.7348 23.8946 10.4804 23.7071 10.2929C23.5196 10.1054 23.2652 10 23 10Z" fill="white"/>
<path d="M32 10C31.7348 10 31.4804 10.1054 31.2929 10.2929C31.1054 10.4804 31 10.7348 31 11V13C31 13.2652 31.1054 13.5196 31.2929 13.7071C31.4804 13.8946 31.7348 14 32 14C32.2652 14 32.5196 13.8946 32.7071 13.7071C32.8946 13.5196 33 13.2652 33 13V11C33 10.7348 32.8946 10.4804 32.7071 10.2929C32.5196 10.1054 32.2652 10 32 10Z" fill="white"/>
<path d="M29 7C28.7348 7 28.4804 7.10536 28.2929 7.29289C28.1054 7.48043 28 7.73478 28 8V18C28 18.2652 28.1054 18.5196 28.2929 18.7071C28.4804 18.8946 28.7348 19 29 19C29.2652 19 29.5196 18.8946 29.7071 18.7071C29.8946 18.5196 30 18.2652 30 18V8C30 7.73478 29.8946 7.48043 29.7071 7.29289C29.5196 7.10536 29.2652 7 29 7Z" fill="white"/>
<path d="M35 7C34.7348 7 34.4804 7.10536 34.2929 7.29289C34.1054 7.48043 34 7.73478 34 8V18C34 18.2652 34.1054 18.5196 34.2929 18.7071C34.4804 18.8946 34.7348 19 35 19C35.2652 19 35.5196 18.8946 35.7071 18.7071C35.8946 18.5196 36 18.2652 36 18V8C36 7.73478 35.8946 7.48043 35.7071 7.29289C35.5196 7.10536 35.2652 7 35 7Z" fill="white"/>
<path d="M26 2C25.7348 2 25.4804 2.10536 25.2929 2.29289C25.1054 2.48043 25 2.73478 25 3V21C25 21.2652 25.1054 21.5196 25.2929 21.7071C25.4804 21.8946 25.7348 22 26 22C26.2652 22 26.5196 21.8946 26.7071 21.7071C26.8946 21.5196 27 21.2652 27 21V3C27 2.73478 26.8946 2.48043 26.7071 2.29289C26.5196 2.10536 26.2652 2 26 2Z" fill="white"/>
<path d="M38 2C37.7348 2 37.4804 2.10536 37.2929 2.29289C37.1054 2.48043 37 2.73478 37 3V21C37 21.2652 37.1054 21.5196 37.2929 21.7071C37.4804 21.8946 37.7348 22 38 22C38.2652 22 38.5196 21.8946 38.7071 21.7071C38.8946 21.5196 39 21.2652 39 21V3C39 2.73478 38.8946 2.48043 38.7071 2.29289C38.5196 2.10536 38.2652 2 38 2Z" fill="white"/>
<path d="M56 1C55.7348 1 55.4804 1.10536 55.2929 1.29289C55.1054 1.48043 55 1.73478 55 2V24C55 24.2652 55.1054 24.5196 55.2929 24.7071C55.4804 24.8946 55.7348 25 56 25C56.2652 25 56.5196 24.8946 56.7071 24.7071C56.8946 24.5196 57 24.2652 57 24V2C57 1.73478 56.8946 1.48043 56.7071 1.29289C56.5196 1.10536 56.2652 1 56 1Z" fill="white"/>
<path d="M52 3C51.7348 3 51.4804 3.10536 51.2929 3.29289C51.1054 3.48043 51 3.73478 51 4V22C51 22.2652 51.1054 22.5196 51.2929 22.7071C51.4804 22.8946 51.7348 23 52 23C52.2652 23 52.5196 22.8946 52.7071 22.7071C52.8946 22.5196 53 22.2652 53 22V4C53 3.73478 52.8946 3.48043 52.7071 3.29289C52.5196 3.10536 52.2652 3 52 3Z" fill="white"/>
<path d="M48 7C47.7348 7 47.4804 7.10536 47.2929 7.29289C47.1054 7.48043 47 7.73478 47 8V18C47 18.2652 47.1054 18.5196 47.2929 18.7071C47.4804 18.8946 47.7348 19 48 19C48.2652 19 48.5196 18.8946 48.7071 18.7071C48.8946 18.5196 49 18.2652 49 18V8C49 7.73478 48.8946 7.48043 48.7071 7.29289C48.5196 7.10536 48.2652 7 48 7Z" fill="white"/>
<path d="M60 3C59.7348 3 59.4804 3.10536 59.2929 3.29289C59.1054 3.48043 59 3.73478 59 4V22C59 22.2652 59.1054 22.5196 59.2929 22.7071C59.4804 22.8946 59.7348 23 60 23C60.2652 23 60.5196 22.8946 60.7071 22.7071C60.8946 22.5196 61 22.2652 61 22V4C61 3.73478 60.8946 3.48043 60.7071 3.29289C60.5196 3.10536 60.2652 3 60 3Z" fill="white"/>
<path d="M64 7C63.7348 7 63.4804 7.10536 63.2929 7.29289C63.1054 7.48043 63 7.73478 63 8V18C63 18.2652 63.1054 18.5196 63.2929 18.7071C63.4804 18.8946 63.7348 19 64 19C64.2652 19 64.5196 18.8946 64.7071 18.7071C64.8946 18.5196 65 18.2652 65 18V8C65 7.73478 64.8946 7.48043 64.7071 7.29289C64.5196 7.10536 64.2652 7 64 7Z" fill="white"/>
<path d="M44 7C43.7348 7 43.4804 7.10536 43.2929 7.29289C43.1054 7.48043 43 7.73478 43 8V18C43 18.2652 43.1054 18.5196 43.2929 18.7071C43.4804 18.8946 43.7348 19 44 19C44.2652 19 44.5196 18.8946 44.7071 18.7071C44.8946 18.5196 45 18.2652 45 18V8C45 7.73478 44.8946 7.48043 44.7071 7.29289C44.5196 7.10536 44.2652 7 44 7Z" fill="white"/>
<path d="M68 11C67.7348 11 67.4804 11.1054 67.2929 11.2929C67.1054 11.4804 67 11.7348 67 12V14C67 14.2652 67.1054 14.5196 67.2929 14.7071C67.4804 14.8946 67.7348 15 68 15C68.2652 15 68.5196 14.8946 68.7071 14.7071C68.8946 14.5196 69 14.2652 69 14V12C69 11.7348 68.8946 11.4804 68.7071 11.2929C68.5196 11.1054 68.2652 11 68 11Z" fill="white"/>
<path d="M41 10C40.7348 10 40.4804 10.1054 40.2929 10.2929C40.1054 10.4804 40 10.7348 40 11V13C40 13.2652 40.1054 13.5196 40.2929 13.7071C40.4804 13.8946 40.7348 14 41 14C41.2652 14 41.5196 13.8946 41.7071 13.7071C41.8946 13.5196 42 13.2652 42 13V11C42 10.7348 41.8946 10.4804 41.7071 10.2929C41.5196 10.1054 41.2652 10 41 10Z" fill="white"/>
<path d="M104 1C104.265 1 104.52 1.10536 104.707 1.29289C104.895 1.48043 105 1.73478 105 2V24C105 24.2652 104.895 24.5196 104.707 24.7071C104.52 24.8946 104.265 25 104 25C103.735 25 103.48 24.8946 103.293 24.7071C103.105 24.5196 103 24.2652 103 24V2C103 1.73478 103.105 1.48043 103.293 1.29289C103.48 1.10536 103.735 1 104 1Z" fill="white"/>
<path d="M108 3C108.265 3 108.52 3.10536 108.707 3.29289C108.895 3.48043 109 3.73478 109 4V22C109 22.2652 108.895 22.5196 108.707 22.7071C108.52 22.8946 108.265 23 108 23C107.735 23 107.48 22.8946 107.293 22.7071C107.105 22.5196 107 22.2652 107 22V4C107 3.73478 107.105 3.48043 107.293 3.29289C107.48 3.10536 107.735 3 108 3Z" fill="white"/>
<path d="M112 7C112.265 7 112.52 7.10536 112.707 7.29289C112.895 7.48043 113 7.73478 113 8V18C113 18.2652 112.895 18.5196 112.707 18.7071C112.52 18.8946 112.265 19 112 19C111.735 19 111.48 18.8946 111.293 18.7071C111.105 18.5196 111 18.2652 111 18V8C111 7.73478 111.105 7.48043 111.293 7.29289C111.48 7.10536 111.735 7 112 7Z" fill="white"/>
<path d="M115 11C115.265 11 115.52 11.1054 115.707 11.2929C115.895 11.4804 116 11.7348 116 12V14C116 14.2652 115.895 14.5196 115.707 14.7071C115.52 14.8946 115.265 15 115 15C114.735 15 114.48 14.8946 114.293 14.7071C114.105 14.5196 114 14.2652 114 14V12C114 11.7348 114.105 11.4804 114.293 11.2929C114.48 11.1054 114.735 11 115 11Z" fill="white"/>
<path d="M100 3C100.265 3 100.52 3.10536 100.707 3.29289C100.895 3.48043 101 3.73478 101 4V22C101 22.2652 100.895 22.5196 100.707 22.7071C100.52 22.8946 100.265 23 100 23C99.7348 23 99.4804 22.8946 99.2929 22.7071C99.1054 22.5196 99 22.2652 99 22V4C99 3.73478 99.1054 3.48043 99.2929 3.29289C99.4804 3.10536 99.7348 3 100 3Z" fill="white"/>
<path d="M96 7C96.2652 7 96.5196 7.10536 96.7071 7.29289C96.8946 7.48043 97 7.73478 97 8V18C97 18.2652 96.8946 18.5196 96.7071 18.7071C96.5196 18.8946 96.2652 19 96 19C95.7348 19 95.4804 18.8946 95.2929 18.7071C95.1054 18.5196 95 18.2652 95 18V8C95 7.73478 95.1054 7.48043 95.2929 7.29289C95.4804 7.10536 95.7348 7 96 7Z" fill="white"/>
<path d="M93 11C93.2652 11 93.5196 11.1054 93.7071 11.2929C93.8946 11.4804 94 11.7348 94 12V14C94 14.2652 93.8946 14.5196 93.7071 14.7071C93.5196 14.8946 93.2652 15 93 15C92.7348 15 92.4804 14.8946 92.2929 14.7071C92.1054 14.5196 92 14.2652 92 14V12C92 11.7348 92.1054 11.4804 92.2929 11.2929C92.4804 11.1054 92.7348 11 93 11Z" fill="white"/>
<path d="M84 11C84.2652 11 84.5196 11.1054 84.7071 11.2929C84.8946 11.4804 85 11.7348 85 12V14C85 14.2652 84.8946 14.5196 84.7071 14.7071C84.5196 14.8946 84.2652 15 84 15C83.7348 15 83.4804 14.8946 83.2929 14.7071C83.1054 14.5196 83 14.2652 83 14V12C83 11.7348 83.1054 11.4804 83.2929 11.2929C83.4804 11.1054 83.7348 11 84 11Z" fill="white"/>
<path d="M87 8C87.2652 8 87.5196 8.10536 87.7071 8.29289C87.8946 8.48043 88 8.73478 88 9V19C88 19.2652 87.8946 19.5196 87.7071 19.7071C87.5196 19.8946 87.2652 20 87 20C86.7348 20 86.4804 19.8946 86.2929 19.7071C86.1054 19.5196 86 19.2652 86 19V9C86 8.73478 86.1054 8.48043 86.2929 8.29289C86.4804 8.10536 86.7348 8 87 8Z" fill="white"/>
<path d="M81 8C81.2652 8 81.5196 8.10536 81.7071 8.29289C81.8946 8.48043 82 8.73478 82 9V19C82 19.2652 81.8946 19.5196 81.7071 19.7071C81.5196 19.8946 81.2652 20 81 20C80.7348 20 80.4804 19.8946 80.2929 19.7071C80.1054 19.5196 80 19.2652 80 19V9C80 8.73478 80.1054 8.48043 80.2929 8.29289C80.4804 8.10536 80.7348 8 81 8Z" fill="white"/>
<path d="M90 3C90.2652 3 90.5196 3.10536 90.7071 3.29289C90.8946 3.48043 91 3.73478 91 4V22C91 22.2652 90.8946 22.5196 90.7071 22.7071C90.5196 22.8946 90.2652 23 90 23C89.7348 23 89.4804 22.8946 89.2929 22.7071C89.1054 22.5196 89 22.2652 89 22V4C89 3.73478 89.1054 3.48043 89.2929 3.29289C89.4804 3.10536 89.7348 3 90 3Z" fill="white"/>
<path d="M78 3C78.2652 3 78.5196 3.10536 78.7071 3.29289C78.8946 3.48043 79 3.73478 79 4V22C79 22.2652 78.8946 22.5196 78.7071 22.7071C78.5196 22.8946 78.2652 23 78 23C77.7348 23 77.4804 22.8946 77.2929 22.7071C77.1054 22.5196 77 22.2652 77 22V4C77 3.73478 77.1054 3.48043 77.2929 3.29289C77.4804 3.10536 77.7348 3 78 3Z" fill="white"/>
<path d="M72 8C72.2652 8 72.5196 8.10536 72.7071 8.29289C72.8946 8.48043 73 8.73478 73 9V19C73 19.2652 72.8946 19.5196 72.7071 19.7071C72.5196 19.8946 72.2652 20 72 20C71.7348 20 71.4804 19.8946 71.2929 19.7071C71.1054 19.5196 71 19.2652 71 19V9C71 8.73478 71.1054 8.48043 71.2929 8.29289C71.4804 8.10536 71.7348 8 72 8Z" fill="white"/>
<path d="M75 11C75.2652 11 75.5196 11.1054 75.7071 11.2929C75.8946 11.4804 76 11.7348 76 12V14C76 14.2652 75.8946 14.5196 75.7071 14.7071C75.5196 14.8946 75.2652 15 75 15C74.7348 15 74.4804 14.8946 74.2929 14.7071C74.1054 14.5196 74 14.2652 74 14V12C74 11.7348 74.1054 11.4804 74.2929 11.2929C74.4804 11.1054 74.7348 11 75 11Z" fill="white"/>
</svg>
