<svg width="24" height="30" viewBox="0 0 24 30" fill="none" xmlns="http://www.w3.org/2000/svg">
<path d="M4 0.251465C1.79375 0.251465 0 1.87044 0 3.86172V25.5233C0 27.5145 1.79375 29.1335 4 29.1335H20C22.2062 29.1335 24 27.5145 24 25.5233V9.27711H16C14.8937 9.27711 14 8.47044 14 7.47198V0.251465H4ZM16 0.251465V7.47198H24L16 0.251465ZM13.5 23.2668C13.5 24.0171 12.8313 24.6207 12 24.6207C11.1687 24.6207 10.5 24.0171 10.5 23.2668V17.5074L8.5625 19.2561C7.975 19.7863 7.025 19.7863 6.44375 19.2561C5.8625 18.7258 5.85625 17.8684 6.44375 17.3438L10.9438 13.2822C11.5313 12.752 12.4812 12.752 13.0625 13.2822L17.5625 17.3438C18.15 17.874 18.15 18.7315 17.5625 19.2561C16.975 19.7807 16.025 19.7863 15.4438 19.2561L13.5063 17.5074V23.2668H13.5Z" fill="#004080"/>
</svg>
